<svg xmlns="http://www.w3.org/2000/svg" width="270" height="27" viewBox="0 0 270 27" fill="none"><rect width="46" height="27" fill="#555555"></rect><path d="M19.2579 9.57194C18.9948 9.20741 18.5641 9.04492 18.1715 9.04492C17.6172 9.04492 17.101 9.32892 16.873 9.93791C16.6099 9.32964 16.2418 9.04492 15.6544 9.04492C15.0756 9.04492 14.6463 9.32892 14.417 9.93791H14.4011V9.30807C14.3954 9.22108 14.3221 9.15061 14.2307 9.14702H13.355C13.2551 9.14702 13.1738 9.22395 13.1738 9.3203V14.1404C13.1803 14.2267 13.2522 14.2936 13.3421 14.2993H14.2818C14.3817 14.2993 14.4623 14.221 14.4623 14.1253V11.5693C14.4623 11.0121 14.4349 10.2406 15.1094 10.2406C15.7766 10.2406 15.6896 11.0315 15.6896 11.5693V14.1246C15.6896 14.2174 15.7644 14.2914 15.8593 14.2986H16.7968C16.8982 14.2986 16.978 14.2202 16.978 14.1246V11.5693C16.978 11.2954 16.9694 10.8884 17.065 10.6454C17.1614 10.4024 17.3993 10.2507 17.6265 10.2507C17.899 10.2507 18.109 10.342 18.1787 10.6655C18.2233 10.8589 18.2053 11.3658 18.2053 11.5693V14.1246C18.2053 14.2174 18.2808 14.2914 18.3743 14.2986H19.3126C19.4125 14.2986 19.4931 14.2202 19.4931 14.1246L19.4945 11.0833C19.4945 10.5663 19.5549 9.97746 19.2579 9.57194Z" fill="#E1E1E1"></path><path d="M31.6378 9.04541C30.2789 9.04541 29.5254 10.2123 29.5254 11.7122C29.5254 13.2033 30.2695 14.3997 31.6378 14.3997C32.9521 14.3997 33.7854 13.2335 33.7854 11.7632C33.789 10.2418 33.0326 9.04541 31.6378 9.04541ZM31.6378 13.4061C30.9015 13.4061 30.9095 12.1486 30.9095 11.5597C30.9095 10.9723 30.954 10.029 31.645 10.029C31.9426 10.029 32.1547 10.1598 32.259 10.4956C32.3827 10.881 32.3999 11.367 32.3999 11.774C32.4028 12.3923 32.3676 13.4061 31.6378 13.4061Z" fill="#E1E1E1"></path><path d="M24.7525 13.4175C24.5814 13.1788 24.4002 12.9861 24.4002 12.5468V11.0829C24.4002 10.4639 24.4427 9.89443 23.9861 9.46735C23.6259 9.12151 23.0284 9 22.5718 9C21.6788 9 20.6802 9.33289 20.4717 10.4373C20.4494 10.5552 20.5342 10.617 20.6111 10.6343L21.5214 10.7321C21.6062 10.7285 21.6688 10.6451 21.6853 10.5602C21.7622 10.1799 22.0822 9.99652 22.4403 9.99652C22.6337 9.99652 22.853 10.0677 22.9658 10.241C23.0989 10.4337 23.0809 10.6983 23.0809 10.9211L23.0802 11.0405C22.5359 11.1031 21.8241 11.1426 21.3143 11.3669C20.7255 11.6207 20.3135 12.1398 20.3135 12.902C20.3135 13.8776 20.9275 14.3658 21.7177 14.3658C22.3849 14.3658 22.7516 14.2084 23.2664 13.6828C23.4361 13.9301 23.4929 14.0509 23.8049 14.3098C23.8761 14.3471 23.966 14.3428 24.0278 14.2882L24.0292 14.2896C24.2169 14.1243 24.557 13.8259 24.7482 13.6663C24.8237 13.6037 24.8129 13.5016 24.7525 13.4175ZM23.0802 11.9975C23.0802 12.3634 23.0902 12.6683 22.904 12.9933C22.7559 13.2579 22.5179 13.4196 22.2562 13.4196C21.8945 13.4196 21.6832 13.1457 21.6832 12.7395C21.6832 11.9392 22.4007 11.794 23.0802 11.794V11.9975Z" fill="#E1E1E1"></path><path d="M38.1032 9.61267C37.8393 9.19709 37.4259 9.04466 37.0053 9.04395C36.3575 9.04395 35.9872 9.35815 35.7255 10.0175H35.7104V9.28049C35.6924 9.205 35.6234 9.14892 35.5421 9.14532H34.6714C34.5758 9.14532 34.4989 9.21435 34.4902 9.30278L34.4917 14.1243C34.4917 14.2171 34.5657 14.2926 34.6614 14.2998H35.5953C35.6967 14.2998 35.778 14.2214 35.7794 14.1243V11.5302C35.7794 11.2045 35.7959 10.9119 35.9297 10.6171C36.0339 10.3849 36.2431 10.2317 36.4732 10.2317C37.1203 10.2317 37.0585 11.0032 37.0585 11.5302V14.1481C37.0657 14.2293 37.1397 14.2926 37.2238 14.3005H38.1664C38.2606 14.3005 38.3361 14.2322 38.3491 14.1481V11.1139C38.3491 10.6473 38.3491 9.99949 38.1032 9.61267Z" fill="#E1E1E1"></path><path d="M28.9089 12.9943C28.3697 12.6909 27.7435 12.6017 27.1481 12.6168L28.75 10.3333C28.8974 10.1277 28.9816 9.99899 28.9816 9.89977V9.30948C28.9816 9.20595 28.9032 9.13477 28.8033 9.13477H25.7166C25.6203 9.13477 25.5426 9.20451 25.5426 9.30948V9.99899C25.5426 10.1018 25.6203 10.1723 25.7209 10.1723H27.3344L25.4808 12.8297C25.3686 13.0001 25.3672 13.1913 25.3672 13.3035V14.0031C25.3672 14.1037 25.4815 14.2195 25.5879 14.1605C26.6384 13.6033 27.898 13.6587 28.8471 14.1562C28.965 14.2166 29.0743 14.0987 29.0743 13.998V13.2618C29.0635 13.1633 29.0312 13.0619 28.9089 12.9943Z" fill="#E1E1E1"></path><path d="M28.3126 14.7391C28.1207 14.5011 26.467 14.2962 25.4582 15.0044C25.3044 15.113 25.3295 15.2633 25.5028 15.2431C26.0701 15.1763 27.3355 15.0246 27.5598 15.3122C27.7849 15.6005 27.3089 16.7911 27.0954 17.3218C27.0299 17.4828 27.1694 17.5475 27.3147 17.4267C28.263 16.6373 28.506 14.9793 28.3126 14.7391Z" fill="#E1E1E1"></path><path d="M26.5721 15.7365C24.5963 16.5756 22.4472 16.9797 20.4916 16.9797C17.5962 16.9797 14.7899 16.1866 12.523 14.8666C12.3252 14.7501 12.1778 14.9536 12.3425 15.1024C14.4441 17.0012 17.2216 18.143 20.3068 18.143C22.5083 18.143 25.0629 17.4506 26.8273 16.1507C27.1185 15.935 26.8705 15.6114 26.5721 15.7365Z" fill="#E1E1E1"></path><path d="M12.4398 13.4175C12.2679 13.1788 12.086 12.9861 12.086 12.5468V11.0829C12.086 10.4639 12.1299 9.89443 11.6733 9.46735C11.3124 9.12151 10.7156 9 10.2576 9C9.36465 9 8.36812 9.33289 8.15746 10.4373C8.13589 10.5552 8.22217 10.617 8.29694 10.6343L9.21006 10.7321C9.29347 10.7285 9.35602 10.6451 9.37256 10.5602C9.44949 10.1799 9.77016 9.99652 10.1282 9.99652C10.3209 9.99652 10.5395 10.0677 10.6545 10.241C10.7854 10.4337 10.7674 10.6983 10.7674 10.9211V11.0419C10.2238 11.1052 9.51204 11.1448 9.00156 11.3691C8.41486 11.6214 8 12.1406 8 12.9027C8 13.8784 8.61546 14.3666 9.40563 14.3666C10.0743 14.3666 10.4395 14.2091 10.9543 13.6835C11.1247 13.9309 11.1808 14.0516 11.4929 14.3105C11.5633 14.3479 11.6525 14.3436 11.715 14.2889L11.7179 14.2903C11.9048 14.125 12.2449 13.8266 12.4376 13.667C12.5138 13.6023 12.5009 13.5016 12.4398 13.4175ZM10.7674 11.9975C10.7674 12.3634 10.7775 12.6683 10.592 12.9933C10.4431 13.2579 10.2066 13.4196 9.942 13.4196C9.58178 13.4196 9.37256 13.1457 9.37256 12.7395C9.37256 11.9392 10.0894 11.794 10.7674 11.794V11.9975Z" fill="#E1E1E1"></path><rect x="56" width="46" height="27" fill="#555555"></rect><path d="M86.8444 9.29297L86.2109 10.8309H87.4843L86.8444 9.29297Z" fill="#E1E1E1"></path><path d="M64.9514 9.29297L64.3252 10.8309H65.5827L64.9514 9.29297Z" fill="#E1E1E1"></path><path d="M79.4862 9.51017C79.377 9.44834 79.2087 9.44043 79.0491 9.44043H77.9131V10.2968H79.034C79.2116 10.2968 79.3611 10.2939 79.4898 10.2177C79.6085 10.1551 79.6797 10.0192 79.6797 9.85097C79.6797 9.68561 79.6056 9.56625 79.4862 9.51017Z" fill="#E1E1E1"></path><path d="M83.4374 16.1469C83.3252 16.08 83.1598 16.0771 82.9973 16.0771H81.8613V16.9435H82.9822C83.162 16.9435 83.3151 16.9378 83.4395 16.8652C83.5589 16.7918 83.63 16.6603 83.63 16.4942C83.6279 16.3281 83.5567 16.2087 83.4374 16.1469Z" fill="#E1E1E1"></path><path d="M78.9473 16.0757H77.7451V17.0585H78.9358C79.2902 17.0585 79.511 16.8831 79.511 16.5502C79.5102 16.2109 79.2809 16.0757 78.9473 16.0757Z" fill="#E1E1E1"></path><path d="M95.9805 16.655C95.9741 16.6485 95.9669 16.6414 95.9604 16.6363C96.1351 16.5227 96.2516 16.3257 96.2516 16.1014V15.2796C96.2516 14.9266 95.9662 14.6418 95.6138 14.6418H93.766C93.1901 14.6418 92.7558 14.8115 92.4395 15.0675C92.3511 14.8201 92.1239 14.6418 91.8456 14.6418H89.9978C89.4895 14.6418 89.089 14.7677 88.7841 14.9747C88.6734 14.777 88.4742 14.6418 88.2355 14.6418H85.1583C84.9102 14.6418 84.701 14.7864 84.5953 14.9927C84.5514 14.9618 84.5191 14.9258 84.4731 14.8985C84.0266 14.6598 83.552 14.6418 83.0631 14.6418H80.9327C80.6847 14.6418 80.4747 14.7878 80.3698 14.9956C80.0455 14.7849 79.5918 14.6418 78.9469 14.6418H76.0004C75.8229 14.6418 75.6539 14.7137 75.5324 14.8446L74.8342 15.5974L74.1641 14.8532C74.0441 14.7159 73.8722 14.6411 73.6903 14.6411H69.9818C69.6294 14.6411 69.3447 14.9266 69.3447 15.2789V19.1377C69.3447 19.4907 69.6302 19.7754 69.9818 19.7754H73.635C73.8125 19.7754 73.9815 19.7014 74.1023 19.5705L74.8062 18.8091L75.4741 19.5605C75.5949 19.6971 75.7689 19.774 75.9508 19.774H77.7433C78.0963 19.774 78.381 19.4886 78.381 19.1377V18.4791H78.8937C79.517 18.4791 79.9678 18.3511 80.2957 18.1563V19.1377C80.2957 19.4893 80.5811 19.774 80.9335 19.774H81.8602C82.2133 19.774 82.498 19.4886 82.498 19.1377V18.3641H82.8453C82.9301 18.3641 82.9898 18.3669 83.0329 18.3698C83.0358 18.4388 83.0358 18.5215 83.0343 18.5762V19.1377C83.0343 19.4893 83.3212 19.774 83.6721 19.774H84.5974C84.701 19.774 84.7944 19.746 84.8793 19.7021C84.9656 19.7445 85.0583 19.774 85.1604 19.774H88.2384C88.3384 19.774 88.4311 19.746 88.5152 19.705C88.5994 19.746 88.6899 19.774 88.792 19.774H90.5881C91.1597 19.774 91.6256 19.6338 91.9743 19.3865C92.0699 19.6137 92.2957 19.774 92.5596 19.774H94.3556C95.662 19.774 96.4407 19.0802 96.4407 17.919C96.4407 17.3812 96.2955 16.9807 95.9805 16.655ZM78.8944 17.8414H77.744V19.1363H75.9516L74.8155 17.8593L73.635 19.1363H69.9818V15.2767H73.6903L74.8263 16.5421L75.9997 15.2767H78.9462C79.6774 15.2767 80.5006 15.4816 80.5006 16.55C80.5006 17.6206 79.7011 17.8435 78.8944 17.8414ZM83.9942 17.3445C84.1984 17.4193 84.3659 17.5552 84.4436 17.6688C84.5751 17.8572 84.5924 18.0326 84.5967 18.3727V19.1377H83.6714V18.6545C83.6714 18.423 83.6937 18.0786 83.5211 17.8989C83.3888 17.7615 83.1839 17.7292 82.846 17.7292H81.861V19.1377H80.9342V15.2789H83.0645C83.5305 15.2789 83.8698 15.2983 84.174 15.46C84.4644 15.6355 84.6478 15.8771 84.6478 16.3164C84.6478 16.9333 84.2358 17.2475 83.9942 17.3445ZM88.237 16.0762H86.0771V16.7787H88.1838V17.5667H86.0771V18.3331L88.237 18.3375V19.1377H85.1597V15.2789H88.237V16.0762ZM90.5888 19.1334H88.7928V18.3044H90.5809C90.7549 18.3044 90.8793 18.2828 90.9569 18.2088C91.0202 18.1498 91.0648 18.0614 91.0648 17.9564C91.0648 17.8442 91.0173 17.7558 90.9526 17.7019C90.8807 17.6429 90.7858 17.6163 90.624 17.6163C89.7627 17.5883 88.682 17.6429 88.682 16.4228C88.682 15.8612 89.0329 15.2738 90.0007 15.2738H91.8485V16.0949H90.1567C89.9877 16.0949 89.8792 16.1021 89.7871 16.1654C89.6857 16.2286 89.6476 16.3214 89.6476 16.4436C89.6476 16.5896 89.7332 16.6866 89.849 16.7312C89.9475 16.765 90.051 16.7751 90.2085 16.7751L90.7038 16.7895C91.2035 16.8031 91.5479 16.8894 91.7557 17.1001C91.9369 17.2863 92.0325 17.5221 92.0325 17.9183C92.0325 18.7502 91.5156 19.1377 90.5888 19.1334ZM94.357 19.1334H92.561V18.3044H94.3499C94.5239 18.3044 94.6482 18.2828 94.7252 18.2088C94.7884 18.1498 94.833 18.0614 94.833 17.9564C94.833 17.8442 94.7856 17.7558 94.7209 17.7019C94.6497 17.6429 94.5548 17.6163 94.3923 17.6163C93.5302 17.5883 92.4503 17.6429 92.4503 16.4228C92.4503 15.8612 92.8011 15.2738 93.7689 15.2738H95.6167V16.0949H93.9256C93.756 16.0949 93.6467 16.1021 93.5554 16.1654C93.454 16.2286 93.4166 16.3214 93.4166 16.4436C93.4166 16.5896 93.5029 16.6866 93.6172 16.7312C93.7164 16.765 93.8192 16.7751 93.9767 16.7751L94.4721 16.7895C94.9725 16.8031 95.3176 16.8894 95.5254 17.1001C95.7052 17.2863 95.8022 17.5221 95.8022 17.9183C95.8022 18.7502 95.2838 19.1377 94.357 19.1334Z" fill="#E1E1E1"></path><path d="M93.0863 8H92.1423C91.7892 8 91.5045 8.28544 91.5045 8.63703V9.03535L91.0666 8.30845C90.9502 8.11791 90.7438 8.00072 90.5217 8.00072H89.116C88.7637 8.00072 88.479 8.28616 88.479 8.63775V9.17915L88.1403 8.38682C88.0404 8.15314 87.8103 8.00072 87.5558 8.00072H86.1739C86.0337 8.00072 85.9 8.04673 85.7936 8.12726C85.6879 8.04745 85.5549 8.00072 85.4118 8.00072H84.5209C83.7631 8.00072 83.2023 8.18406 82.7896 8.54212C82.7422 8.23799 82.4898 8.00072 82.172 8.00072H81.2301C80.9785 8.00072 80.7678 8.14955 80.6628 8.3595C80.6233 8.33074 80.5931 8.29623 80.5485 8.27034C80.1157 8.02013 79.6605 8.00072 79.112 8.00072H76.9909C76.8716 8.00072 76.7673 8.04242 76.671 8.09922C76.5768 8.04242 76.4711 8.00072 76.3517 8.00072H73.2716C73.1414 8.00072 73.0286 8.04889 72.9279 8.11504C72.8265 8.04889 72.7136 8.00072 72.5842 8.00072H71.047C70.7925 8.00072 70.5617 8.15386 70.4618 8.38969L69.9139 9.68101L69.3106 8.371C69.2057 8.14524 68.9792 8.00072 68.7319 8.00072H67.2263C66.874 8.00072 66.5893 8.28616 66.5893 8.63775V9.19209L66.2434 8.38538C66.1428 8.15171 65.9127 8 65.6574 8H64.2885C64.0332 8 63.8032 8.15243 63.7025 8.3861L62.0517 12.2449C61.9669 12.4427 61.9877 12.667 62.1049 12.8467C62.2228 13.025 62.4227 13.1329 62.637 13.1329H63.6392C63.8952 13.1329 64.1274 12.9776 64.2259 12.7403L64.4208 12.2715H65.4892L65.6812 12.7374C65.779 12.9761 66.0119 13.1322 66.2707 13.1322H68.1466C68.4989 13.1322 68.7836 12.8467 68.7836 12.4951V12.48L68.9044 12.754C69.0065 12.9841 69.2352 13.1329 69.4868 13.1329L70.2971 13.1343C70.5502 13.1343 70.7774 12.9855 70.8795 12.7547L71.0017 12.4815V12.4973C71.0017 12.8489 71.2864 13.1336 71.6387 13.1336H72.5842C72.7136 13.1336 72.8265 13.0847 72.9279 13.0193C73.0286 13.0847 73.1414 13.1336 73.2716 13.1336H76.3517C76.4711 13.1336 76.5768 13.0919 76.671 13.0351C76.7666 13.0919 76.8716 13.1336 76.9909 13.1336H77.9141C78.2664 13.1336 78.5511 12.8482 78.5511 12.4966V11.7301H78.9035C78.9833 11.7301 79.0401 11.7323 79.0825 11.7352C79.0868 11.8006 79.0854 11.8782 79.0854 11.93L79.0839 12.0149L79.0875 12.5016C79.0904 12.851 79.3758 13.1336 79.7253 13.1336H80.6556C80.7599 13.1336 80.8541 13.1013 80.9411 13.0567C81.0295 13.102 81.1244 13.1336 81.2294 13.1336H82.1713C82.4804 13.1336 82.7249 12.9107 82.7846 12.6202C83.3073 13.0596 84.0435 13.1336 84.4534 13.1336H85.534C85.7914 13.1336 86.0244 12.9754 86.1214 12.7346L86.3091 12.2723H87.3717L87.5666 12.741C87.6651 12.9776 87.8966 13.1329 88.1547 13.1329H90.0313C90.3836 13.1329 90.6683 12.8474 90.6683 12.4959V11.8869L91.2342 12.8252C91.3499 13.0157 91.5563 13.1329 91.7806 13.1329H93.0863C93.4386 13.1329 93.7233 12.8474 93.7233 12.4959V8.63703C93.7233 8.28544 93.4372 8 93.0863 8ZM72.5835 12.4951H71.638L71.6344 9.47322L70.2971 12.4951H69.4868L68.1473 9.47034V12.4951H66.27L65.9156 11.6345H63.9959L63.6378 12.4951H62.6355L64.287 8.63631H65.656L67.2256 12.2902V8.63631H68.7311L69.9383 11.2542L71.0463 8.63631H72.5835V12.4951ZM76.351 9.44014H74.1926V10.1354H76.3V10.9263H74.1926V11.6971H76.351V12.4951H73.2709V8.63631H76.351V9.44014ZM80.0445 10.7049C80.2465 10.7825 80.4191 10.9177 80.5011 11.0298C80.6319 11.2218 80.6542 11.3929 80.6542 11.7373V12.4944H79.7238L79.7195 12.0077C79.7195 11.7761 79.7418 11.4425 79.5743 11.2563C79.4398 11.1211 79.2342 11.0917 78.902 11.0917H77.9134V12.4951H76.9902H76.9895V8.63703H79.1105C79.5822 8.63703 79.9295 8.64925 80.2271 8.82181C80.519 8.99437 80.6937 9.24601 80.6937 9.67669C80.6937 10.2914 80.2832 10.6099 80.0445 10.7049ZM82.172 12.4951H81.2301V8.63631H82.172V12.4951ZM93.0863 12.4951H91.7799L90.0306 9.59904V12.4951H88.154L87.7945 11.6345H85.8777L85.5311 12.4951H84.4512C84.0033 12.4951 83.4374 12.3959 83.1167 12.0688C82.7903 11.7409 82.6221 11.2966 82.6221 10.5956C82.6221 10.0232 82.7235 9.49982 83.116 9.08568C83.413 8.77795 83.8796 8.63631 84.5166 8.63631H85.4075V9.46315H84.5339C84.1981 9.46315 84.0076 9.51276 83.825 9.69179C83.6675 9.85428 83.5604 10.1613 83.5604 10.5661C83.5604 10.9788 83.6423 11.2764 83.8149 11.4713C83.958 11.6244 84.2168 11.6705 84.4577 11.6705H84.8711L86.1739 8.63631H87.5558L89.116 12.2859V8.63631H90.5217L92.1423 11.3239V8.63631H93.0863V12.4951ZM84.8553 10.1009L84.4548 11.0349C84.3664 11.0349 84.3067 11.0248 84.2736 11.0162C84.2427 10.9587 84.2003 10.8314 84.2003 10.5668C84.2003 10.2993 84.265 10.1606 84.2736 10.1484C84.3002 10.1225 84.3225 10.1002 84.5389 10.1002L84.8553 10.1009Z" fill="#E1E1E1"></path><path d="M75.4102 17.214L76.8266 18.7872V15.6934L75.4102 17.214Z" fill="#E1E1E1"></path><path d="M73.2142 16.0771H70.9033V16.7782H72.9273V17.5662H70.9033V18.3341H73.1696L74.2229 17.2002L73.2142 16.0771Z" fill="#E1E1E1"></path><rect x="112" width="46" height="27" fill="#555555"></rect><path d="M125.496 10.5985C125.377 10.3605 125.19 10.1642 124.957 10.0168C124.714 9.86798 124.427 9.76373 124.099 9.70189C123.765 9.6415 123.38 9.61418 122.933 9.60986L120.872 9.6113C120.658 9.61418 120.448 9.78098 120.398 9.98805L119.011 16.029C118.96 16.2332 119.095 16.4043 119.309 16.4043H120.296C120.51 16.4043 120.722 16.2383 120.77 16.029L121.109 14.5623C121.154 14.3581 121.365 14.1877 121.582 14.1877H121.864C123.071 14.1863 124.006 13.9396 124.678 13.4457C125.353 12.951 125.686 12.2975 125.686 11.4879C125.685 11.1334 125.627 10.8357 125.496 10.5985ZM123.367 12.5721C123.069 12.7907 122.654 12.9 122.119 12.9H121.877C121.662 12.9 121.531 12.7303 121.577 12.5232L121.874 11.2405C121.916 11.0349 122.132 10.8645 122.345 10.8659L122.668 10.8638C123.046 10.8638 123.334 10.9292 123.527 11.0558C123.717 11.1809 123.813 11.38 123.811 11.6439C123.817 12.0451 123.664 12.3535 123.367 12.5721Z" fill="#E1E1E1"></path><path d="M153.637 10.0828L153.575 10.1015L153.492 10.113L153.391 10.0972L153.339 10.0469L153.315 9.96776L153.314 9.84913V9.40983H153.644V9.27394H153.314V9H153.151V9.27394H153.04V9.40983H153.151V9.92103L153.227 10.1741L153.451 10.2546L153.545 10.2467L153.645 10.2273V10.0828H153.637Z" fill="#E1E1E1"></path><path d="M155.168 9.34413L154.932 9.24707L154.758 9.2823L154.581 9.40165L154.478 9.28733L154.311 9.24779L154.151 9.28302L153.999 9.3808V9.27439H153.839V10.2342H153.998V9.51741L154.133 9.43401L154.267 9.40093L154.376 9.42035L154.43 9.47571L154.454 9.56774L154.462 9.68637V10.235H154.622V9.62095L154.619 9.5699L154.616 9.52316L154.753 9.43616L154.888 9.40237L154.994 9.42178L155.051 9.47715L155.071 9.5699L155.082 9.68709V10.2357H155.243V9.61232L155.168 9.34413Z" fill="#E1E1E1"></path><path d="M130.256 11.4624C129.884 11.2524 129.296 11.1475 128.492 11.1475C128.094 11.1475 127.698 11.1784 127.298 11.2402C127.002 11.2855 126.973 11.2941 126.791 11.3337C126.416 11.4156 126.357 11.7902 126.357 11.7902L126.236 12.2871C126.168 12.6041 126.351 12.5919 126.427 12.5653C126.591 12.5164 126.682 12.4661 127.017 12.3913C127.337 12.3187 127.674 12.2641 127.942 12.2677C128.336 12.2677 128.638 12.3094 128.84 12.3942C129.038 12.4805 129.137 12.6286 129.137 12.8428L129.12 12.9823L128.978 13.07C128.418 13.1053 128.013 13.157 127.522 13.2282C127.042 13.2951 126.62 13.4123 126.27 13.5726C125.894 13.738 125.615 13.9602 125.42 14.2427C125.232 14.5267 125.138 14.8711 125.138 15.2752C125.138 15.6555 125.274 15.9697 125.54 16.2128C125.806 16.4515 126.159 16.5679 126.58 16.5679C126.847 16.5665 127.053 16.5457 127.2 16.5104L127.678 16.3458L128.083 16.1215L128.455 15.8756L128.46 15.8827L128.423 16.0409L128.421 16.0474V16.0488C128.38 16.2415 128.497 16.3997 128.684 16.4184L128.688 16.4227H128.705H129.462H129.605L129.618 16.417C129.815 16.3939 130 16.2358 130.043 16.0474L130.762 12.932L130.8 12.6782L130.817 12.4402C130.82 11.9987 130.629 11.6716 130.256 11.4624ZM128.664 14.9653L128.51 15.1681L128.122 15.3687C127.94 15.4427 127.766 15.4801 127.606 15.4801C127.363 15.4801 127.172 15.4449 127.044 15.373L126.853 15.0027C126.853 14.8021 126.899 14.6432 126.998 14.521L127.416 14.2363C127.595 14.1759 127.814 14.1248 128.067 14.0896C128.293 14.0615 128.738 14.0105 128.797 14.0091L128.865 14.1291C128.851 14.1974 128.725 14.7266 128.664 14.9653Z" fill="#E1E1E1"></path><path d="M148.187 11.466C147.812 11.2561 147.225 11.1504 146.423 11.1504C146.026 11.1504 145.629 11.1813 145.23 11.2453C144.933 11.2884 144.904 11.2978 144.721 11.3366C144.347 11.4179 144.288 11.7939 144.288 11.7939L144.168 12.29C144.1 12.6071 144.278 12.5927 144.362 12.5682C144.526 12.5194 144.615 12.4712 144.947 12.3935C145.266 12.3216 145.606 12.2684 145.874 12.2699C146.267 12.2699 146.569 12.3123 146.77 12.3971C146.97 12.4834 147.067 12.633 147.067 12.8451L147.052 12.9838L146.911 13.0737C146.346 13.1075 145.94 13.1593 145.454 13.2304C144.975 13.2973 144.552 13.4138 144.201 13.5748C143.827 13.7409 143.544 13.9631 143.352 14.2464C143.161 14.5304 143.068 14.8741 143.068 15.2745C143.068 15.6578 143.204 15.972 143.472 16.2135C143.741 16.4515 144.089 16.5709 144.511 16.5709C144.776 16.568 144.982 16.5507 145.13 16.5126L145.606 16.3501L146.015 16.1258L146.384 15.877L146.391 15.885L146.357 16.0446L146.353 16.0475L146.355 16.0503C146.31 16.243 146.427 16.4026 146.617 16.4199L146.619 16.4235H146.636C146.76 16.4235 147.19 16.4235 147.395 16.4235H147.535L147.55 16.4185C147.745 16.3947 147.929 16.2365 147.97 16.046L148.692 12.9349L148.73 12.6797L148.751 12.441C148.751 12.001 148.563 11.6753 148.187 11.466ZM146.599 14.969L146.438 15.1739L146.054 15.373C145.871 15.4464 145.697 15.4845 145.54 15.4845C145.289 15.4845 145.103 15.4485 144.978 15.3766L144.785 15.0078C144.785 14.8065 144.832 14.649 144.926 14.5246C145.022 14.4074 145.168 14.3111 145.349 14.2406C145.526 14.1802 145.744 14.1313 145.999 14.0947C146.223 14.0666 146.668 14.0141 146.725 14.0134L146.795 14.1335C146.785 14.2018 146.658 14.7288 146.599 14.969Z" fill="#E1E1E1"></path><path d="M143.423 10.6202C143.3 10.3808 143.114 10.1874 142.88 10.0364C142.639 9.88682 142.355 9.78185 142.022 9.72145C141.695 9.66321 141.304 9.63158 140.861 9.63086L138.796 9.6323C138.581 9.63589 138.375 9.8027 138.326 10.0076L136.937 16.0515C136.887 16.2564 137.025 16.4261 137.235 16.4261L138.223 16.4246C138.433 16.4261 138.648 16.2578 138.698 16.0507L139.032 14.5833C139.081 14.3791 139.293 14.2072 139.507 14.2087H139.789C140.998 14.2087 141.935 13.9599 142.609 13.4674C143.276 12.9691 143.613 12.317 143.613 11.5067C143.609 11.1537 143.548 10.8553 143.423 10.6202ZM141.294 12.5967C140.997 12.811 140.581 12.9203 140.049 12.9203H139.803C139.591 12.9224 139.454 12.7498 139.501 12.5442L139.8 11.2637C139.844 11.0588 140.058 10.8869 140.272 10.8891L140.592 10.8869C140.971 10.8891 141.256 10.9516 141.45 11.0782C141.644 11.2047 141.735 11.4032 141.737 11.6663C141.739 12.0675 141.59 12.3767 141.294 12.5967Z" fill="#E1E1E1"></path><path d="M151.888 10.0566C151.933 9.85023 151.804 9.68271 151.591 9.68558H150.707C150.526 9.68558 150.363 9.82003 150.283 9.9854L150.234 10.0616L150.189 10.2572L148.953 15.8754L148.913 16.048L148.915 16.0523C148.874 16.237 148.987 16.3765 149.163 16.4031L149.178 16.424H150.096C150.276 16.424 150.445 16.2874 150.522 16.1191L150.569 16.0472L151.891 10.0573L151.888 10.0566Z" fill="#E1E1E1"></path><path d="M136.964 11.2222C136.73 11.2251 135.781 11.2222 135.781 11.2222C135.568 11.2222 135.295 11.3941 135.159 11.599C135.159 11.599 133.746 14.0249 133.609 14.2686L133.445 14.2665L133.005 11.6155C132.956 11.407 132.738 11.2287 132.467 11.2287L131.582 11.2302C131.37 11.2302 131.239 11.3998 131.287 11.6069C131.287 11.6069 131.958 15.4284 132.093 16.3278C132.155 16.8239 132.085 16.9124 132.085 16.9124L131.211 18.4352C131.081 18.6423 131.151 18.8112 131.363 18.8112L132.386 18.8098C132.598 18.8098 132.878 18.6423 133.005 18.4345L136.937 11.7823C136.937 11.7831 137.316 11.2143 136.964 11.2222Z" fill="#E1E1E1"></path><rect x="168" width="46" height="27" fill="#555555"></rect><path d="M188.049 9.16162L186.442 18.5883H189.011L190.619 9.16162H188.049Z" fill="#E1E1E1"></path><path d="M184.288 9.17239L181.772 15.6011L181.503 14.6304C181.007 13.4608 179.598 11.7811 177.944 10.7226L180.245 18.5839L182.964 18.5792L187.01 9.17041L184.288 9.17239Z" fill="#E1E1E1"></path><path d="M180.528 9.8469C180.379 9.27268 179.946 9.10154 179.409 9.08105H175.426L175.393 9.26872C178.492 10.0207 180.543 11.8325 181.394 14.0111L180.528 9.8469Z" fill="#E1E1E1"></path><path d="M195.826 10.9691C196.667 10.9559 197.276 11.1396 197.749 11.3299L197.981 11.4389L198.328 9.39581C197.82 9.20484 197.022 9 196.027 9C193.488 9 191.699 10.2786 191.685 12.1109C191.668 13.4649 192.96 14.2208 193.935 14.6721C194.936 15.1347 195.272 15.4287 195.267 15.8417C195.259 16.4727 194.469 16.7622 193.731 16.7622C192.702 16.7622 192.155 16.6201 191.312 16.2686L190.981 16.1179L190.619 18.2278C191.22 18.4914 192.33 18.7181 193.482 18.73C196.182 18.73 197.937 17.4666 197.956 15.5087C197.967 14.4375 197.282 13.6202 195.797 12.9495C194.898 12.512 194.349 12.2213 194.354 11.7799C194.354 11.3881 194.82 10.9691 195.826 10.9691Z" fill="#E1E1E1"></path><path d="M204.921 9.17236H202.936C202.32 9.17236 201.861 9.3402 201.59 9.95472L197.775 18.5937H200.473C200.473 18.5937 200.913 17.4321 201.013 17.1777C201.309 17.1777 203.93 17.1817 204.303 17.1817C204.38 17.5107 204.616 18.5937 204.616 18.5937H207L204.921 9.17236ZM201.753 15.2482C201.964 14.707 202.776 12.6137 202.776 12.6137C202.762 12.6395 202.986 12.0686 203.118 11.7137L203.292 12.5265C203.292 12.5265 203.784 14.7771 203.887 15.2482H201.753Z" fill="#E1E1E1"></path><rect x="224" width="46" height="27" fill="#555555"></rect><path d="M252.792 5C250.72 5.00055 248.832 5.78584 247.409 7.07563C245.984 5.7875 244.097 5.00166 242.027 5.00166C242.01 5.00166 241.992 5.00166 241.976 5.00166C237.569 5.03046 234 8.61574 234 13.0289C234 17.4599 237.596 21.0557 242.027 21.0557C244.096 21.0557 245.984 20.2709 247.407 18.9817C247.11 18.7131 246.841 18.4157 246.587 18.1045H248.244C247.994 18.4107 247.722 18.6976 247.429 18.9645H247.428C247.421 18.9717 247.414 18.9762 247.407 18.9823C248.832 20.2726 250.722 21.059 252.795 21.0584C257.228 21.0568 260.82 17.4615 260.819 13.0289C260.819 13.0273 260.819 13.0262 260.819 13.0251C260.82 8.59248 257.225 4.99889 252.792 5ZM246.679 7.90466H248.204C248.429 8.17713 248.638 8.464 248.827 8.76416H246.105C246.281 8.47729 246.474 8.18212 246.679 7.90466ZM245.631 9.60704H249.29C249.42 9.88504 249.536 10.1725 249.636 10.4671H245.198C245.242 10.384 245.397 10.0495 245.631 9.60704ZM237.277 15.0736L237.764 12.0044L236.665 15.0736H236.077L236 12.0044L235.48 15.0736H234.656L235.339 11.0032H236.586L236.63 13.5008L237.472 11.0032H238.825L238.151 15.0736H237.277ZM240.193 15.0669L240.221 14.7418C240.208 14.7435 239.947 15.1345 239.344 15.1345C239.028 15.1345 238.519 14.9622 238.519 14.2135C238.519 13.2615 239.295 12.9459 240.035 12.9459C240.151 12.9459 240.402 12.9669 240.402 12.9669C240.402 12.9669 240.43 12.9088 240.43 12.7515C240.43 12.4929 240.198 12.4574 239.879 12.4574C239.318 12.4574 238.948 12.6075 238.948 12.6075L239.072 11.871C239.072 11.871 239.521 11.6827 240.107 11.6827C240.41 11.6827 241.281 11.7148 241.281 12.7133L240.945 15.0669H240.193ZM243.373 14.0302C243.373 15.166 242.273 15.1173 242.08 15.1173C241.363 15.1173 241.142 15.0182 241.121 15.0126L241.235 14.265C241.236 14.2584 241.595 14.3952 241.995 14.3952C242.225 14.3952 242.524 14.3725 242.524 14.0972C242.524 13.6852 241.454 13.7838 241.454 12.8052C241.454 11.9418 242.095 11.6893 242.728 11.6893C243.216 11.6893 243.516 11.7563 243.516 11.7563L243.408 12.5106C243.408 12.5106 242.945 12.4724 242.825 12.4724C242.521 12.4724 242.355 12.5388 242.355 12.7515C242.355 13.179 243.373 12.9697 243.373 14.0302ZM244.694 14.3282C244.77 14.3282 244.856 14.3021 244.915 14.3021L244.808 15.0282C244.722 15.052 244.479 15.1384 244.167 15.1406C243.769 15.1439 243.486 14.9213 243.486 14.4162C243.486 14.0773 243.972 11.2845 243.99 11.2662H244.845L244.758 11.7657H245.184L245.075 12.5704H244.623L244.383 14.0529C244.364 14.1709 244.397 14.3282 244.694 14.3282ZM246.574 11.6716C247.512 11.6716 247.793 12.3583 247.793 12.9215C247.793 13.1469 247.68 13.7007 247.68 13.7007H245.943C245.943 13.7007 245.783 14.3846 246.7 14.3846C247.131 14.3846 247.608 14.1742 247.608 14.1742L247.457 14.9977C247.457 14.9977 247.181 15.1384 246.555 15.1384C245.875 15.1384 245.078 14.8509 245.078 13.6437C245.079 12.5975 245.714 11.6716 246.574 11.6716ZM248.837 17.2777H245.99C245.816 17.0008 245.655 16.7167 245.516 16.4182H249.305C249.166 16.715 249.01 17.0019 248.837 17.2777ZM248.646 15.0797H247.769L248.302 11.7668H249.098L249.022 12.247C249.022 12.247 249.305 11.7248 249.688 11.7248C249.799 11.7248 249.853 11.7358 249.853 11.7358C249.739 11.9673 249.639 12.1794 249.535 12.7271C248.941 12.5167 248.896 13.6647 248.646 15.0797ZM251.988 15.0282C251.988 15.0282 251.529 15.1456 251.241 15.1456C250.221 15.1456 249.703 14.4417 249.703 13.3756C249.703 11.7679 250.663 10.9118 251.649 10.9118C252.095 10.9118 252.611 11.1211 252.611 11.1211L252.472 12.0266C252.472 12.0266 252.122 11.7823 251.688 11.7823C251.106 11.7823 250.585 12.3373 250.585 13.3457C250.585 13.8425 250.828 14.3054 251.435 14.3054C251.723 14.3054 252.141 14.0956 252.141 14.0956L251.988 15.0282ZM254.046 15.0686L254.075 14.7413C254.061 14.7429 253.8 15.1339 253.198 15.1339C252.882 15.1339 252.373 14.9617 252.373 14.213C252.373 13.261 253.149 12.9453 253.888 12.9453C254.004 12.9453 254.256 12.9664 254.256 12.9664C254.256 12.9664 254.284 12.9088 254.284 12.7515C254.284 12.4929 254.052 12.4574 253.733 12.4574C253.172 12.4574 252.802 12.6075 252.802 12.6075L252.926 11.871C252.926 11.871 253.376 11.6827 253.962 11.6827C254.264 11.6827 255.136 11.7148 255.135 12.7133L254.799 15.0669C254.799 15.0686 254.046 15.0686 254.046 15.0686ZM255.822 15.0797H254.945L255.478 11.7668H256.274L256.198 12.247C256.198 12.247 256.482 11.7248 256.865 11.7248C256.976 11.7248 257.029 11.7358 257.029 11.7358C256.916 11.9673 256.815 12.1794 256.711 12.7271C256.117 12.5167 256.072 13.6647 255.822 15.0797ZM258.441 15.0708L258.478 14.7657C258.478 14.7657 258.194 15.1234 257.681 15.1234C256.971 15.1234 256.623 14.4372 256.623 13.7361C256.623 12.6518 257.275 11.7065 258.058 11.7065C258.562 11.7076 258.884 12.1523 258.884 12.1523L259.069 11.0087L259.925 11.007L259.272 15.0708H258.441ZM260.131 14.9562C260.108 14.9971 260.076 15.0287 260.035 15.0531C259.995 15.0758 259.951 15.0874 259.906 15.0874C259.862 15.0874 259.819 15.0758 259.778 15.0531C259.737 15.0287 259.705 14.9971 259.682 14.9562C259.659 14.9146 259.648 14.8725 259.648 14.8277C259.648 14.7823 259.66 14.7391 259.682 14.6981C259.705 14.6571 259.739 14.6239 259.779 14.6017C259.821 14.579 259.863 14.5674 259.906 14.5674C259.95 14.5674 259.992 14.579 260.033 14.6017C260.076 14.6244 260.108 14.656 260.131 14.6981C260.155 14.7396 260.165 14.7828 260.165 14.8277C260.165 14.8725 260.154 14.9152 260.131 14.9562Z" fill="#E1E1E1"></path><path d="M260.063 17.4061C260.057 17.4022 260.052 17.3961 260.043 17.3927C260.034 17.3894 260.02 17.3877 259.999 17.3877H259.946V17.4713H260.002C260.028 17.4713 260.045 17.469 260.055 17.4596C260.065 17.4518 260.069 17.4423 260.069 17.4289C260.069 17.42 260.067 17.4139 260.063 17.4061Z" fill="#E1E1E1"></path><path d="M260.241 17.3563C260.217 17.3131 260.184 17.2826 260.143 17.2599C260.101 17.2372 260.059 17.2256 260.016 17.2256C259.972 17.2256 259.93 17.2372 259.889 17.2599C259.848 17.2826 259.814 17.3142 259.791 17.3563C259.767 17.3973 259.757 17.4405 259.757 17.4848C259.757 17.5291 259.768 17.5728 259.791 17.6132C259.815 17.6542 259.847 17.6875 259.888 17.7102C259.929 17.7329 259.972 17.7445 260.017 17.7445C260.061 17.7445 260.105 17.7329 260.145 17.7102C260.185 17.6875 260.218 17.6542 260.241 17.6132C260.264 17.5728 260.275 17.5296 260.275 17.4848C260.275 17.4399 260.264 17.3967 260.241 17.3563ZM260.081 17.6288L260.057 17.585C260.038 17.5507 260.022 17.528 260.009 17.5191C260.002 17.5136 259.989 17.5091 259.974 17.5091H259.948V17.6282H259.902V17.3485H259.999C260.032 17.3485 260.056 17.3513 260.069 17.3568C260.084 17.3624 260.097 17.3701 260.105 17.384C260.113 17.3967 260.117 17.4106 260.117 17.425C260.117 17.4454 260.11 17.4626 260.096 17.4787C260.081 17.4931 260.061 17.5025 260.038 17.5041C260.048 17.5075 260.055 17.513 260.061 17.5191C260.073 17.5302 260.086 17.5484 260.103 17.5739L260.137 17.6288H260.081Z" fill="#E1E1E1"></path><path d="M240.104 13.5815C239.477 13.5815 239.351 13.8629 239.351 14.0971C239.351 14.2179 239.42 14.4194 239.685 14.4194C240.2 14.4194 240.306 13.7449 240.29 13.6015C240.265 13.5965 240.25 13.5821 240.104 13.5815Z" fill="#E1E1E1"></path><path d="M246.577 12.4365C246.111 12.4365 246.021 12.9665 246.021 13.0224H246.97C246.97 12.9798 247.059 12.4365 246.577 12.4365Z" fill="#E1E1E1"></path><path d="M258.206 12.5293C257.83 12.5293 257.533 12.9657 257.533 13.6286C257.533 14.0329 257.677 14.292 257.985 14.292C258.448 14.292 258.671 13.6878 258.671 13.2376C258.671 12.7408 258.513 12.5293 258.206 12.5293Z" fill="#E1E1E1"></path><path d="M260.092 14.7204C260.073 14.6861 260.046 14.6595 260.011 14.6401C259.977 14.6207 259.942 14.6113 259.905 14.6113C259.87 14.6113 259.834 14.6213 259.8 14.6401C259.765 14.6578 259.738 14.6855 259.719 14.7204C259.699 14.7553 259.689 14.7924 259.689 14.8284C259.689 14.8655 259.699 14.9021 259.718 14.9359C259.738 14.9702 259.764 14.9962 259.799 15.0167C259.833 15.0355 259.868 15.0466 259.905 15.0466C259.943 15.0466 259.979 15.0355 260.012 15.0167C260.047 14.9973 260.073 14.9707 260.093 14.9359C260.113 14.9015 260.121 14.8655 260.121 14.8284C260.121 14.7919 260.111 14.7553 260.092 14.7204ZM259.972 14.9707L259.947 14.9275C259.928 14.8927 259.912 14.8705 259.9 14.8622C259.891 14.855 259.88 14.8517 259.864 14.8517H259.838V14.9702H259.792V14.6911H259.889C259.921 14.6911 259.946 14.6938 259.96 14.6999C259.974 14.7049 259.986 14.7143 259.995 14.7265C260.005 14.7387 260.008 14.7525 260.008 14.7675C260.008 14.788 260 14.8052 259.986 14.8207C259.971 14.8367 259.951 14.8434 259.928 14.8461C259.939 14.8506 259.946 14.8556 259.952 14.8605C259.964 14.8722 259.977 14.8888 259.993 14.9154L260.027 14.9707H259.972Z" fill="#E1E1E1"></path><path d="M253.958 13.5815C253.332 13.5815 253.205 13.8629 253.205 14.0971C253.205 14.2179 253.274 14.4194 253.54 14.4194C254.054 14.4194 254.16 13.7449 254.144 13.6015C254.119 13.5965 254.104 13.5821 253.958 13.5815Z" fill="#E1E1E1"></path><path d="M259.954 14.748C259.95 14.7424 259.944 14.738 259.935 14.7341C259.926 14.7313 259.912 14.7285 259.89 14.7285V14.7291H259.839V14.8137H259.894C259.92 14.8137 259.937 14.8104 259.948 14.802C259.956 14.7937 259.961 14.7831 259.961 14.7708C259.961 14.7614 259.959 14.7558 259.954 14.748Z" fill="#E1E1E1"></path></svg>